<?xml version="1.0" standalone="no"?>
<!DOCTYPE svg PUBLIC "-//W3C//DTD SVG 20010904//EN"
 "http://www.w3.org/TR/2001/REC-SVG-20010904/DTD/svg10.dtd">
<svg version="1.0" xmlns="http://www.w3.org/2000/svg"
 width="140.000000pt" height="120.000000pt" viewBox="0 0 140.000000 120.000000"
 preserveAspectRatio="xMidYMid meet">

<g transform="translate(0.000000,120.000000) scale(0.100000,-0.100000)"
fill="#000000" stroke="none">
<path d="M402 1120 c-51 -64 -66 -148 -39 -213 10 -22 12 -58 9 -115 -5 -88 2
-99 40 -65 17 15 18 15 18 0 0 -28 17 -19 34 18 l17 35 54 -31 c40 -22 72 -32
117 -35 l63 -5 -30 18 -30 17 55 7 c30 4 68 12 83 18 43 17 52 14 70 -24 16
-33 47 -49 47 -23 0 9 3 9 12 0 7 -7 20 -12 30 -12 37 0 17 143 -25 178 -9 7
-19 28 -23 45 -15 72 -62 107 -142 107 -31 0 -65 8 -94 23 -33 17 -44 19 -40
9 9 -24 -39 -4 -75 31 -36 34 -43 22 -18 -27 9 -16 13 -31 11 -33 -2 -3 -22 5
-44 16 -29 15 -44 31 -53 56 -7 19 -15 35 -19 34 -3 0 -15 -13 -28 -29z"/>
<path d="M360 685 c-8 -2 -32 -6 -53 -10 -36 -6 -38 -8 -35 -38 2 -24 8 -33
25 -35 18 -3 23 -12 28 -47 9 -58 35 -98 78 -118 89 -43 188 1 223 98 8 23 17
31 41 33 28 3 32 0 38 -28 15 -67 86 -120 163 -120 74 0 142 71 142 148 0 27
3 32 25 32 22 0 25 4 25 34 0 42 -7 45 -119 53 -61 4 -114 1 -182 -11 -87 -16
-101 -16 -178 -2 -74 14 -180 19 -221 11z m87 -52 l-5 -28 22 28 c15 18 28 26
39 21 15 -5 14 -11 -8 -55 -33 -64 -23 -63 16 1 17 28 32 50 34 50 2 0 15 -4
29 -10 22 -8 26 -15 26 -53 0 -59 -33 -108 -86 -126 -50 -18 -88 -9 -125 29
-26 25 -29 36 -29 89 0 60 0 61 33 70 54 16 60 14 54 -16z m398 0 l-7 -28 22
28 c21 27 50 37 50 17 0 -6 -7 -25 -16 -41 -23 -46 -11 -45 20 1 31 47 43 50
56 14 32 -83 -27 -174 -112 -174 -68 0 -131 72 -126 145 3 39 4 40 53 52 70
16 68 16 60 -14z"/>
<path d="M568 428 c-19 -15 -47 -23 -87 -26 -57 -4 -60 -6 -67 -35 -5 -22 -2
-34 10 -42 11 -8 16 -27 16 -59 0 -25 5 -46 10 -46 6 0 10 -7 10 -16 0 -17 62
-84 78 -84 6 0 8 9 5 20 -7 28 12 25 35 -5 24 -30 32 -31 32 -5 0 17 8 12 43
-25 45 -46 75 -60 62 -27 -3 9 -9 31 -11 47 -5 29 -5 29 11 10 12 -14 19 -16
22 -7 7 17 23 5 23 -19 0 -35 18 -20 25 22 7 39 8 40 26 23 16 -15 19 -15 19
-2 0 9 7 18 15 22 8 3 15 13 15 22 0 12 3 14 13 5 20 -16 45 50 49 132 l3 68
-65 2 c-49 2 -73 7 -97 25 -44 31 -155 31 -195 0z"/>
</g>
</svg>
